<svg xmlns="http://www.w3.org/2000/svg" viewBox="0 0 200 200"><rect width="200" height="200" rx="28" fill="#111827"/><circle cx="100" cy="100" r="72" fill="#f59e0b"/><path d="M55 94c0-29 20-48 45-48s45 19 45 48c0 18-13 31-32 37l-9 26H96l-9-26c-19-6-32-19-32-37Z" fill="#fff7ed"/><path d="M70 95h60c4 0 7 3 7 7v8c0 21-16 37-37 37s-37-16-37-37v-8c0-4 3-7 7-7Z" fill="#111827"/><circle cx="83" cy="96" r="4" fill="#f59e0b"/><circle cx="117" cy="96" r="4" fill="#f59e0b"/><path d="M82 113c9 9 27 9 36 0" fill="none" stroke="#f59e0b" stroke-linecap="round" stroke-width="5"/><path d="M58 78c12-15 28-20 42-20 16 0 32 7 42 20" fill="none" stroke="#fff7ed" stroke-linecap="round" stroke-width="6"/></svg>
